<?xml version="1.0" standalone="no"?>
<!DOCTYPE svg PUBLIC "-//W3C//DTD SVG 20010904//EN"
 "http://www.w3.org/TR/2001/REC-SVG-20010904/DTD/svg10.dtd">
<svg version="1.0" xmlns="http://www.w3.org/2000/svg"
 width="300.000000pt" height="300.000000pt" viewBox="0 0 300.000000 300.000000"
 preserveAspectRatio="xMidYMid meet">
<metadata>
Created by potrace 1.11, written by Peter Selinger 2001-2013
</metadata>
<g transform="translate(0.000000,300.000000) scale(0.100000,-0.100000)"
fill="#000000" stroke="none">
<path d="M148 2349 l-148 -149 0 -845 0 -845 1500 0 1500 0 0 995 0 995 -1352
-1 -1353 0 -147 -150z m2829 127 c8 -7 8 -1934 0 -1942 -7 -7 -2947 -7 -2954
0 -3 3 -6 377 -6 832 l1 826 143 144 c78 79 152 144 163 146 43 6 2647 1 2653
-6z"/>
<path d="M263 2242 l-133 -134 0 -739 0 -739 1378 0 1377 0 0 872 -1 873
-1244 0 -1245 1 -132 -134z m272 -411 c18 -1 17 -3 -8 -24 l-28 -22 3 -168 3
-168 200 159 c110 87 202 167 203 176 2 11 -4 19 -17 23 -20 5 -29 22 -13 24
10 1 574 1 590 0 17 -1 15 -21 -3 -21 -17 0 -34 -29 -28 -50 9 -29 55 -155 64
-175 5 -11 32 -81 60 -155 28 -74 56 -146 61 -160 10 -24 10 -24 29 20 11 25
22 52 25 60 3 8 43 105 88 215 47 112 81 208 78 219 -3 10 -14 21 -24 24 -10
2 -17 9 -15 15 5 15 329 15 334 0 2 -6 -5 -14 -16 -18 -10 -3 -22 -13 -25 -22
-6 -14 24 -103 69 -208 7 -16 39 -95 70 -175 31 -80 58 -146 60 -148 2 -2 12
21 23 50 12 29 51 130 87 223 93 237 98 251 79 270 -9 8 -23 15 -32 15 -12 0
-13 3 -5 11 11 11 282 20 311 11 17 -6 15 -22 -2 -22 -8 0 -26 -15 -39 -32
-26 -37 -306 -735 -314 -786 -5 -28 -2 -34 15 -39 11 -3 23 -11 25 -17 4 -10
-31 -13 -143 -15 -147 -1 -182 6 -135 27 14 7 25 20 25 29 0 10 -51 146 -113
301 -102 254 -114 280 -125 260 -28 -55 -222 -544 -222 -560 0 -11 11 -23 25
-28 58 -22 23 -30 -125 -29 -82 1 -150 4 -150 7 0 2 11 15 25 28 l25 23 -24
63 c-34 89 -155 397 -171 433 -7 17 -34 84 -60 150 -26 66 -52 130 -59 143
-12 22 -17 19 -219 -140 l-206 -162 26 -35 c15 -20 32 -40 38 -46 6 -5 34 -37
61 -70 27 -33 51 -62 54 -65 3 -3 59 -67 123 -142 107 -125 145 -162 171 -163
5 0 11 -5 13 -12 3 -9 -43 -12 -181 -12 -159 0 -184 2 -180 14 4 8 12 15 20
15 8 0 14 6 14 13 0 19 -298 377 -313 377 -7 0 -23 -10 -37 -23 -14 -12 -42
-35 -62 -51 l-38 -28 0 -139 c0 -128 1 -139 20 -149 11 -6 20 -15 20 -19 0 -5
-65 -9 -145 -10 -80 0 -145 2 -145 5 0 4 10 16 23 28 l22 21 -1 400 c-1 220
-2 405 -3 412 0 6 -10 15 -21 18 -29 9 -25 23 8 27 22 2 186 2 257 -1z"/>
</g>
</svg>
